<svg xmlns="http://www.w3.org/2000/svg" xml:space="preserve" width="1500" height="1500" data-id="lg_iV9dzmMSMSheLc37ek" data-version="1" viewBox="0 0 1500 1500"><path fill="#0a1627" stroke="transparent" d="M0 0h1500v1500H0z"/><g data-padding="20"><g transform="translate(-573.792 -584.481)scale(1.7249)"><rect width="499.307" height="296.06" x="234.055" y="343.621" fill="none" rx="0" ry="0" transform="matrix(.76 0 0 .76 489.82 400)"/><path fill="#fe0039" d="M707.133 836.21h-13.535V696.826h13.535v64.509h83.63v-64.51h13.544V836.21h-13.543v-70.095h-83.63Zm252.875 0h-17.92l-65.308-71.485 60.526-67.9h17.13l-65.51 62.32Zm-90.402 0H856.07V696.826h13.536Zm120.278-12.35V696.826h13.543v125.84q0 25.089-6.97 39.027t-21.31 20.315l-.593-.996q7.965-5.578 11.644-18.817 3.686-13.247 3.686-38.335M487.741 716.736l28.324 28.324-28.324 28.324 9.894 9.972 38.257-38.296-38.257-38.256Zm54.902 48.112v14.007h110.89V764.81Zm0 44.892h110.89v-14.046h-110.89Zm0 30.885h55.445v-14.046h-55.484Z"/></g><path fill="transparent" stroke="transparent" stroke-width="1.789" d="M250 548.748h1000v402.504H250z"/></g></svg>